<svg width="100" height="83" viewBox="0 0 100 83" fill="none" xmlns="http://www.w3.org/2000/svg">
<g clip-path="url(#clip0_632_29941)">
<path d="M50.3596 56.137C52.3594 56.1602 54.2581 55.8029 56.1286 55.2612C58.7894 54.4906 61.2023 53.233 63.3717 51.5576C65.5049 49.9101 67.2641 47.9204 68.656 45.6179C69.7514 43.806 70.5809 41.8872 71.0522 39.8399C71.3369 38.6032 71.4688 37.3305 71.6263 36.0687C71.7066 35.4251 71.767 34.7631 71.705 34.1217C71.5734 32.7594 71.4079 31.3958 71.1596 30.05C70.889 28.5834 70.3723 27.1823 69.7107 25.8368C69.6213 25.6551 69.6245 25.5033 69.8035 25.3394C70.2808 24.9023 70.7378 24.4434 71.1913 23.982C71.3888 23.7811 71.5032 23.8151 71.6236 24.0517C72.5791 25.9296 73.317 27.884 73.6708 29.9579C73.8666 31.1056 74.0187 32.2662 74.0905 33.4269C74.1611 34.5691 74.1914 35.7264 74.0874 36.8636C73.8573 39.3782 73.2422 41.8103 72.2182 44.137C71.3055 46.2107 70.125 48.1269 68.672 49.8702C67.514 51.2596 66.1999 52.4984 64.7424 53.5985C63.3201 54.672 61.8165 55.6067 60.1984 56.3496C58.2422 57.2478 56.1956 57.8681 54.0597 58.2473C52.0989 58.5955 50.1265 58.6586 48.1653 58.5303C46.5785 58.4265 44.9952 58.1007 43.4397 57.748C41.6182 57.335 39.9046 56.598 38.2615 55.7196C36.8634 54.9723 35.5283 54.1285 34.3354 53.0866C33.5879 52.4338 32.8181 51.7973 32.1367 51.0815C30.7611 49.6367 29.5797 48.0486 28.5937 46.3128C27.8506 45.0045 27.2393 43.6445 26.7616 42.2324C26.2398 40.6901 25.8269 39.1112 25.7281 37.4777C25.6462 36.1238 25.5196 34.7636 25.5752 33.4127C25.6547 31.4835 25.9625 29.5688 26.6067 27.7353C27.0542 26.4614 27.5385 25.1896 28.1394 23.9807C28.9657 22.3184 30.0299 20.7947 31.2459 19.3699C33.2319 17.0429 35.5911 15.1804 38.2963 13.7274C38.3929 13.6755 38.4863 13.618 38.5888 13.5586C38.9219 14.2886 39.2538 15.0162 39.6057 15.7876C33.8742 18.9466 30.1045 23.6486 28.5592 29.956C27.5356 34.1339 27.8554 38.2909 29.4244 42.3024C32.7455 50.7939 41.1522 56.4385 50.3596 56.137Z" fill="#4169E1"/>
<path d="M65.308 26.7151C66.107 28.2155 66.7073 29.759 66.9918 31.397C67.1607 32.3698 67.2334 33.3631 67.2836 34.3504C67.3924 36.4896 67.023 38.5614 66.2756 40.5717C65.6105 42.3608 64.6657 43.989 63.4567 45.48C61.7861 47.5403 59.723 49.1088 57.3156 50.2351C55.857 50.9175 54.3309 51.4413 52.712 51.6129C51.5692 51.734 50.4193 51.8485 49.2719 51.8543C47.8736 51.8614 46.4958 51.6156 45.1467 51.2442C43.2822 50.7308 41.551 49.9311 39.9566 48.8565C38.2158 47.6833 36.7446 46.236 35.5282 44.5406C34.0555 42.4879 33.1382 40.2037 32.6439 37.7526C32.5275 37.1756 32.5046 36.5793 32.456 35.9905C32.414 35.4812 32.3551 34.9683 32.3751 34.4597C32.464 32.1994 32.882 30.0063 33.8182 27.9232C34.5499 26.2951 35.5091 24.8198 36.6949 23.468C38.2657 21.6772 40.1572 20.3208 42.2895 19.2644C42.3929 19.2132 42.5688 19.1965 42.6618 19.2485C43.5062 19.7209 44.3396 20.2122 45.1914 20.7067C44.5687 20.9658 43.9282 21.2001 43.317 21.4934C42.0581 22.0976 40.9185 22.8704 39.8614 23.7854C38.422 25.0315 37.3076 26.5074 36.4417 28.1681C35.6827 29.624 35.1859 31.1712 35.0107 32.805C34.9344 33.5169 34.8259 34.2349 34.8513 34.9461C34.9225 36.9438 35.3287 38.8696 36.1772 40.7092C36.985 42.4604 38.0688 44.0136 39.4787 45.3267C41.5526 47.2583 43.983 48.5551 46.8082 49.1201C48.0556 49.3696 49.3079 49.5083 50.5725 49.4357C52.4049 49.3306 54.172 48.9333 55.8614 48.1997C57.0279 47.6931 58.1273 47.0735 59.1091 46.2901C60.5654 45.128 61.8186 43.7746 62.779 42.1723C63.802 40.4656 64.4695 38.6308 64.7201 36.6771C65.0546 34.0697 64.7545 31.5183 63.6991 29.0824C63.4437 28.4928 63.1285 27.9267 62.8151 27.3635C62.6773 27.1159 62.6916 26.9586 62.9065 26.7582C63.3998 26.2982 63.8641 25.8083 64.4287 25.2417C64.7391 25.763 65.0147 26.2258 65.308 26.7151Z" fill="#4169E1"/>
<path d="M56.581 18.8805C57.565 19.368 58.5219 19.8362 59.4454 20.288C58.8025 20.92 58.2071 21.5052 57.5903 22.1115C55.925 21.1216 54.0427 20.4144 51.9998 20.1655C51.2493 20.0741 50.4913 20.0237 49.7352 19.9998C47.4808 19.9284 45.4432 19.2667 43.655 17.9034C42.0018 16.643 40.8264 15.0498 40.1814 13.085C39.7811 11.8655 39.593 10.6118 39.7046 9.34248C39.9173 6.92216 40.8255 4.8056 42.5856 3.03725C44.0842 1.53148 45.8765 0.600078 47.9419 0.190487C49.5204 -0.122544 51.1075 -0.0218274 52.6691 0.41304C54.5799 0.945135 56.1899 1.95069 57.4958 3.40122C58.6779 4.71423 59.4742 6.24004 59.7904 7.97775C59.9154 8.66458 60.057 9.36719 60.0348 10.0578C59.9583 12.436 59.2441 14.6008 57.607 16.4151C57.3652 16.6831 57.1316 16.9584 56.898 17.2259C55.9232 16.9353 54.9799 16.654 53.9912 16.3593C54.9167 15.7229 55.7021 15.0073 56.2869 14.1078C56.9936 13.0205 57.4037 11.8419 57.5082 10.5383C57.664 8.5951 57.0794 6.87491 55.9074 5.36968C54.7346 3.86334 53.15 2.94655 51.2256 2.58085C49.1752 2.19118 47.3027 2.63492 45.6027 3.72289C43.8692 4.83222 42.7748 6.44314 42.3421 8.43631C41.8412 10.7436 42.3691 12.8267 43.8627 14.6857C45.0992 16.2248 46.7224 17.1042 48.6507 17.4714C49.1159 17.5599 49.6025 17.5617 50.0794 17.5648C52.2393 17.5789 54.3127 18.0057 56.3152 18.7879C56.3925 18.8181 56.4743 18.8371 56.581 18.8805Z" fill="#4169E1"/>
<path d="M67.4668 11.1924C67.552 11.7141 67.6465 12.1973 67.7132 12.6842C67.8914 13.9866 68.0578 15.2907 68.2366 16.6528C70.3296 16.9335 72.42 17.2139 74.603 17.5068C74.4632 17.6589 74.3793 17.7589 74.2865 17.8501C72.4812 19.6246 70.668 21.3915 68.8768 23.1796C68.6268 23.4292 68.3695 23.4556 68.0754 23.4173C66.8602 23.2591 65.6358 23.1408 64.437 22.9007C63.8556 22.7843 63.565 23.0179 63.214 23.3639C59.3182 27.2045 55.4112 31.034 51.5137 34.8729C51.3184 35.0653 51.1274 35.1565 50.8493 35.1438C50.3848 35.1226 49.9186 35.138 49.407 35.138C49.407 34.6239 49.3724 34.1375 49.4232 33.6599C49.4451 33.4543 49.6089 33.2325 49.7675 33.0761C53.7143 29.1871 57.6645 25.3015 61.631 21.4319C61.9315 21.1388 61.9602 20.8388 61.9151 20.4946C61.7855 19.5041 61.6387 18.5157 61.4994 17.5264C61.4689 17.3093 61.4881 17.0721 61.4032 16.8786C61.2258 16.4748 61.4297 16.247 61.6965 15.9873C63.4751 14.2553 65.2433 12.5131 67.0114 10.7707C67.1099 10.6737 67.1773 10.5463 67.2591 10.4331C67.3073 10.4538 67.3555 10.4744 67.4037 10.4951C67.4236 10.7152 67.4435 10.9354 67.4668 11.1924Z" fill="#4169E1"/>
<path d="M45.4658 25.1545C46.3293 24.8926 47.1524 24.548 48.0072 24.4345C49.0262 24.2992 50.0732 24.3261 51.1065 24.3484C52.2771 24.3737 53.3603 24.7754 54.4566 25.246C54.408 25.3372 54.3816 25.4329 54.3199 25.4946C53.8228 25.9917 53.3294 26.4936 52.808 26.9653C52.71 27.0539 52.4756 27.0675 52.3316 27.0253C51.268 26.714 50.1779 26.6018 49.0837 26.7003C47.8077 26.8152 46.6292 27.2463 45.5321 27.9175C43.6453 29.072 42.4576 30.7166 41.9125 32.81C41.2979 35.1698 41.7653 37.3617 43.1738 39.3343C44.5201 41.2196 46.3887 42.3291 48.7223 42.6705C51.038 43.0092 53.1188 42.4213 54.9267 41.0234C56.5576 39.7622 57.549 38.0818 57.9335 36.0505C58.1832 34.7313 57.992 33.4674 57.6661 32.1984C57.6396 32.0952 57.6679 31.931 57.7383 31.8588C58.2872 31.2958 58.8527 30.7484 59.4172 30.1921C60.7398 32.3356 61.103 36.5545 59.1941 39.8218C56.7643 43.9805 52.5561 45.5501 48.7954 45.1505C43.1037 44.5458 40.0081 40.2875 39.3584 36.6258C38.4195 31.334 41.4251 26.9718 45.4658 25.1545Z" fill="#4169E1"/>
<path d="M76.0654 79.1202C76.0112 78.024 76.0864 76.9959 76.6586 76.0515C77.3636 74.8879 78.4082 74.2633 79.7512 74.0427C80.9381 73.8477 82.0235 74.0734 83.0195 74.7138C84.286 75.5281 84.8521 76.7238 84.924 78.1778C84.983 79.3722 84.6999 80.4552 83.9086 81.3963C83.258 82.1701 82.409 82.6219 81.4401 82.8107C80.4116 83.0112 79.3855 82.9076 78.4278 82.4388C77.1546 81.8155 76.4079 80.8014 76.1459 79.4339C76.1281 79.3406 76.0929 79.2506 76.0654 79.1202ZM81.4389 81.3221C81.7695 81.1219 82.1536 80.9744 82.4212 80.7122C83.501 79.654 83.6981 77.9618 82.8042 76.6095C81.8803 75.2118 79.7346 74.9634 78.5208 76.196C77.735 76.994 77.5326 77.9388 77.6712 79.0275C77.8887 80.7354 79.7063 81.8952 81.4389 81.3221Z" fill="#4169E1"/>
<path d="M25.5755 80.7913C25.163 80.0839 24.9747 79.3294 24.9717 78.5679C24.9636 76.4636 26.0262 74.6101 28.417 74.0812C30.2314 73.6797 32.0249 74.2403 33.1234 75.8469C34.5108 77.8761 34.0548 80.8157 31.9679 82.171C30.1103 83.3774 27.4673 83.0743 26.0019 81.386C25.8493 81.2101 25.7279 81.0081 25.5755 80.7913ZM30.1441 81.3763C30.8314 81.2063 31.3716 80.845 31.7739 80.2583C32.2106 79.6215 32.3065 78.9263 32.2873 78.183C32.2383 76.2921 30.4225 74.9689 28.6146 75.5213C27.4497 75.8772 26.8509 76.7152 26.6311 77.8679C26.4106 79.024 26.8352 80.3096 27.857 80.989C28.5294 81.436 29.2761 81.5827 30.1441 81.3763Z" fill="#4169E1"/>
<path d="M75.0328 81.7584C74.1745 82.5736 73.1116 82.8594 72.0019 82.9003C70.6903 82.9488 69.4677 82.5641 68.5277 81.6381C67.7527 80.8747 67.3088 79.9175 67.2871 78.8019C67.2717 78.012 67.2861 77.2304 67.6346 76.4978C68.2983 75.1029 69.3967 74.2892 70.956 74.0392C71.8267 73.8997 72.6656 73.9661 73.4542 74.3124C73.9755 74.5413 74.4372 74.9011 74.9583 75.2224C74.5417 75.6745 74.2065 76.0383 73.9195 76.3496C73.445 76.0676 73.0373 75.7345 72.5682 75.5628C70.9523 74.9709 69.3049 75.9869 68.9162 77.6631C68.691 78.6342 68.8702 79.5261 69.4708 80.3496C69.9066 80.9472 70.5088 81.2314 71.1967 81.4108C71.8196 81.5733 72.4112 81.4407 72.9937 81.2365C73.3257 81.1202 73.5724 80.9511 73.5181 80.5245C73.4731 80.1705 73.5089 79.8067 73.5089 79.4175C72.8264 79.4175 72.1787 79.4175 71.4979 79.4175C71.4979 78.9656 71.4979 78.5425 71.4979 78.0914C72.6589 78.0914 73.8274 78.0914 75.0396 78.0914C75.0396 79.3072 75.0396 80.5154 75.0328 81.7584Z" fill="#4169E1"/>
<path d="M43.6963 78.2314C43.6963 76.7897 43.6963 75.3898 43.6963 73.9898C43.7321 73.9718 43.768 73.9538 43.8038 73.9358C45.536 75.7083 47.2681 77.4809 49.0351 79.2892C49.0351 77.5766 49.0351 75.8833 49.0351 74.1612C49.5715 74.1612 50.0584 74.1612 50.5709 74.1612C50.5709 77.0635 50.5709 79.9631 50.5709 82.9632C48.8073 81.1574 47.102 79.4114 45.3334 77.6005C45.3334 79.3568 45.3334 81.0193 45.3334 82.7154C44.7869 82.7154 44.2714 82.7154 43.6963 82.7154C43.6963 81.2423 43.6963 79.7578 43.6963 78.2314Z" fill="#4169E1"/>
<path d="M62.5852 74.0179C63.8897 73.9126 65.077 74.1263 66.127 74.9226C65.8368 75.3592 65.5728 75.7563 65.3551 76.0838C64.7196 75.8552 64.1459 75.6344 63.5621 75.4432C63.0654 75.2806 62.5947 75.4234 62.1528 75.6499C61.6577 75.9036 61.4699 76.9374 62.2078 77.2255C62.6553 77.4002 63.1361 77.4907 63.5908 77.6498C64.2393 77.8769 64.9059 78.0786 65.5134 78.3883C66.3778 78.8291 66.5259 79.8671 66.4043 80.6534C66.2019 81.9634 65.0245 82.7328 63.8005 82.8477C62.5435 82.9657 61.393 82.7668 60.3369 82.0843C60.1862 81.9869 60.0512 81.8661 59.8926 81.7436C60.1693 81.3167 60.4337 80.9089 60.6632 80.5549C61.2488 80.8205 61.8149 81.0999 62.3994 81.3354C62.9033 81.5385 63.4332 81.5243 63.9558 81.3787C64.5164 81.2224 64.9213 80.7569 64.8966 80.3056C64.8754 79.9169 64.3698 79.4596 63.8325 79.3178C63.1243 79.1309 62.4068 78.9658 61.7177 78.7241C60.8302 78.4129 60.2114 77.8229 60.1419 76.8448C60.0598 75.6915 60.4572 74.8828 61.4528 74.3846C61.7916 74.2151 62.1848 74.1506 62.5852 74.0179Z" fill="#4169E1"/>
<path d="M37.8363 81.3313C39.1509 81.8445 40.2967 80.9136 40.2915 79.6048C40.2849 77.9465 40.2899 76.288 40.2899 74.6296C40.2899 74.4793 40.2899 74.329 40.2899 74.1555C40.8004 74.1555 41.2775 74.1555 41.7919 74.1555C41.8014 74.2472 41.8216 74.3522 41.8217 74.4572C41.8236 76.3246 41.8534 78.1927 41.8124 80.0593C41.7853 81.2899 41.0951 82.3469 39.8627 82.7C38.6863 83.037 37.5113 83.0297 36.4568 82.3226C35.6994 81.8147 35.2795 81.0709 35.2705 80.1627C35.2507 78.1717 35.2643 76.1804 35.2643 74.1606C35.7745 74.1606 36.2617 74.1606 36.7976 74.1606C36.7976 74.3959 36.7976 74.6284 36.7976 74.8609C36.7976 76.4636 36.7846 78.0664 36.8034 79.6688C36.8119 80.3921 37.0598 81.0112 37.8363 81.3313Z" fill="#4169E1"/>
<path d="M92.761 80.8302C93.049 81.4682 93.3301 82.0748 93.6424 82.7485C93.0888 82.7485 92.5862 82.7593 92.085 82.7384C91.9969 82.7347 91.8831 82.6139 91.8351 82.5205C91.6533 82.1666 91.4556 81.8131 91.3392 81.4369C91.2602 81.182 91.1284 81.1561 90.9126 81.1572C89.9335 81.1624 88.9542 81.1659 87.9751 81.1548C87.7422 81.1521 87.6357 81.2207 87.5555 81.446C87.4005 81.8816 87.1942 82.2996 87.0089 82.7249C86.4625 82.7249 85.9162 82.7249 85.2773 82.7249C86.6691 79.7667 88.0352 76.8631 89.4501 73.856C90.5818 76.234 91.668 78.5164 92.761 80.8302ZM89.3963 79.9046C89.8008 79.9046 90.2054 79.9046 90.6836 79.9046C90.2685 78.9741 89.8832 78.1107 89.4581 77.1579C89.0305 78.1132 88.6382 78.9897 88.2287 79.9046C88.6338 79.9046 88.9729 79.9046 89.3963 79.9046Z" fill="#4169E1"/>
<path d="M1.64305 79.3446C2.50302 77.5274 3.3447 75.7366 4.23471 73.843C5.65632 76.8647 7.02224 79.7681 8.41301 82.7242C7.79452 82.7242 7.26174 82.7242 6.69529 82.7242C6.47295 82.231 6.23893 81.7119 5.98997 81.1597C4.91054 81.1597 3.805 81.1531 2.69985 81.1702C2.59255 81.1718 2.44495 81.2983 2.3893 81.404C2.19781 81.7678 2.05282 82.1554 1.85875 82.5177C1.80248 82.6227 1.64435 82.7323 1.52727 82.7386C1.06124 82.7638 0.592968 82.749 0.0498047 82.749C0.588882 81.5928 1.10682 80.482 1.64305 79.3446ZM5.20184 79.3476C4.89121 78.6413 4.58057 77.935 4.23453 77.1482C3.8055 78.1145 3.42019 78.9823 3.0174 79.8895C3.85603 79.8895 4.61895 79.8895 5.42426 79.8895C5.3597 79.7209 5.29874 79.5616 5.20184 79.3476Z" fill="#4169E1"/>
<path d="M8.68945 78.3275C8.78919 77.7952 8.82303 77.2769 8.9994 76.8107C9.60384 75.2127 10.765 74.2815 12.5142 74.0368C13.5992 73.8851 14.5915 74.0546 15.5166 74.6083C15.8119 74.785 16.0723 75.0181 16.3723 75.2431C16.0245 75.6427 15.6996 76.0159 15.4045 76.3549C14.9524 76.0839 14.5413 75.7746 14.0812 75.5739C12.9512 75.081 11.3942 75.6207 10.7901 76.6998C10.1374 77.8659 10.1121 79.0275 10.7984 80.1744C11.1902 80.8291 11.7932 81.2495 12.5559 81.4037C13.5371 81.6022 14.4102 81.3778 15.1126 80.6565C15.3355 80.4276 15.4882 80.4723 15.6596 80.686C15.892 80.9759 16.1252 81.2653 16.3792 81.5813C15.7552 82.2681 14.975 82.6625 14.0837 82.824C12.9509 83.0291 11.8476 82.8725 10.852 82.2996C9.60318 81.581 8.92065 80.4773 8.77328 79.0591C8.74921 78.8274 8.71723 78.5965 8.68945 78.3275Z" fill="#4169E1"/>
<path d="M21.5818 81.436C22.3899 81.4146 22.9385 80.967 23.525 80.4585C23.8207 80.78 24.1286 81.0943 24.4025 81.435C24.4441 81.4866 24.3561 81.6852 24.2788 81.775C23.7354 82.4063 22.9805 82.6693 22.196 82.8201C21.2768 82.9969 20.374 82.8951 19.4931 82.5402C18.5027 82.1413 17.7517 81.4863 17.3272 80.5417C16.6068 78.9384 16.6382 77.3481 17.6264 75.8345C18.3287 74.7588 19.3578 74.2233 20.6252 74.0414C21.8272 73.869 22.9276 74.0528 23.9016 74.7954C24.0975 74.9447 24.2812 75.1096 24.4858 75.2801C24.1391 75.6677 23.8252 76.0186 23.4954 76.3873C22.9598 75.9452 22.4355 75.5553 21.7202 75.4522C20.6134 75.2927 19.7008 75.6327 19.0612 76.4774C18.1157 77.7263 18.2289 79.6391 19.3717 80.7215C19.9657 81.2842 20.7094 81.5361 21.5818 81.436Z" fill="#4169E1"/>
<path d="M57.8363 74.1318C58.3302 74.1318 58.7815 74.1318 59.2584 74.1318C59.2584 74.5837 59.2584 75.006 59.2584 75.4584C58.3143 75.4584 57.3834 75.4584 56.4089 75.4584C56.4089 77.8887 56.4089 80.2898 56.4089 82.7198C55.8793 82.7198 55.3923 82.7198 54.8613 82.7198C54.8613 80.3164 54.8613 77.9153 54.8613 75.4847C53.8591 75.4847 52.8997 75.4847 51.9072 75.4847C51.9072 75.034 51.9072 74.6112 51.9072 74.1318C53.8636 74.1318 55.8287 74.1318 57.8363 74.1318Z" fill="#4169E1"/>
<path d="M97.9557 82.749C96.8086 82.749 95.7041 82.749 94.5742 82.749C94.5742 79.87 94.5742 77.0214 94.5742 74.1523C95.0658 74.1523 95.5429 74.1523 96.0664 74.1523C96.0664 76.5265 96.0664 78.9014 96.0664 81.3213C97.3939 81.3213 98.6766 81.3213 99.9792 81.3213C99.9792 81.807 99.9792 82.2478 99.9792 82.749C99.3199 82.749 98.6591 82.749 97.9557 82.749Z" fill="#4169E1"/>
</g>
<defs>
<clipPath id="clip0_632_29941">
<rect width="100" height="83" fill="white"/>
</clipPath>
</defs>
</svg>
