<svg width="20" height="20" viewBox="0 0 20 20" fill="none" xmlns="http://www.w3.org/2000/svg">
<path d="M11.6048 10.6481L9.81458 8.85783C9.57058 8.61383 9.44858 8.49183 9.31692 8.42658C9.0665 8.30247 8.7725 8.30247 8.522 8.42658C8.39042 8.49183 8.26839 8.61383 8.02436 8.85783C7.78032 9.10191 7.6583 9.22391 7.59307 9.35549C7.46898 9.60599 7.46898 9.89999 7.59307 10.1504C7.6583 10.2821 7.78032 10.4041 8.02436 10.6481L9.81458 12.4383M11.6048 10.6481L16.9757 16.0189C17.2197 16.2629 17.3417 16.3849 17.4069 16.5166C17.531 16.767 17.531 17.061 17.4069 17.3115C17.3417 17.4431 17.2197 17.5651 16.9757 17.8092C16.7316 18.0532 16.6096 18.1752 16.478 18.2404C16.2275 18.3645 15.9335 18.3645 15.6831 18.2404C15.5514 18.1752 15.4294 18.0532 15.1854 17.8092L9.81458 12.4383M11.6048 10.6481L9.81458 12.4383" stroke="white" stroke-width="1.5" stroke-linecap="round" stroke-linejoin="round"/>
<path d="M14.1673 1.6665L14.413 2.33034C14.7351 3.20081 14.8962 3.63605 15.2137 3.95355C15.5312 4.27105 15.9663 4.4321 16.8368 4.7542L17.5007 4.99984L16.8368 5.24548C15.9663 5.56758 15.5312 5.72864 15.2137 6.04613C14.8962 6.36363 14.7351 6.79886 14.413 7.66934L14.1673 8.33317L13.9217 7.66934C13.5996 6.79887 13.4385 6.36363 13.121 6.04613C12.8035 5.72863 12.3683 5.56758 11.4978 5.24548L10.834 4.99984L11.4978 4.7542C12.3683 4.4321 12.8035 4.27105 13.121 3.95355C13.4385 3.63605 13.5996 3.20081 13.9217 2.33034L14.1673 1.6665Z" stroke="white" stroke-width="1.5" stroke-linejoin="round"/>
<path d="M5 3.3335L5.18423 3.83137C5.42581 4.48422 5.5466 4.81065 5.78472 5.04878C6.02284 5.2869 6.34927 5.40769 7.00212 5.64926L7.5 5.8335L7.00212 6.01773C6.34927 6.2593 6.02284 6.3801 5.78472 6.61822C5.5466 6.85634 5.42581 7.18277 5.18423 7.83562L5 8.3335L4.81577 7.83562C4.57419 7.18277 4.4534 6.85634 4.21528 6.61822C3.97716 6.3801 3.65073 6.2593 2.99788 6.01773L2.5 5.8335L2.99788 5.64926C3.65073 5.40769 3.97716 5.2869 4.21528 5.04877C4.4534 4.81065 4.57419 4.48422 4.81577 3.83137L5 3.3335Z" stroke="white" stroke-width="1.5" stroke-linejoin="round"/>
</svg>
