<svg width="32" height="32" viewBox="0 0 32 32" fill="none" xmlns="http://www.w3.org/2000/svg">
<path d="M14.0013 29.3332H8.78913C6.72862 29.3332 5.08972 28.3305 3.61818 26.9286C0.60579 24.0586 5.5517 21.7652 7.43806 20.642C10.8387 18.617 14.9422 18.1489 18.668 19.2373" stroke="#777777" stroke-width="1.5" stroke-linecap="round" stroke-linejoin="round"/>
<path d="M22 8.6665C22 11.9802 19.3137 14.6665 16 14.6665C12.6863 14.6665 10 11.9802 10 8.6665C10 5.3528 12.6863 2.6665 16 2.6665C19.3137 2.6665 22 5.3528 22 8.6665Z" stroke="#777777" stroke-width="1.5"/>
<path d="M24.5763 18.4649C25.0233 17.9803 25.2469 17.7382 25.4844 17.5969C26.0576 17.2559 26.7635 17.2454 27.3463 17.5689C27.5877 17.703 27.8181 17.9385 28.2791 18.4091C28.7399 18.8799 28.9703 19.1154 29.1016 19.3621C29.4183 19.9574 29.4079 20.6785 29.0741 21.2639C28.9359 21.5066 28.6988 21.735 28.2245 22.1918L22.5824 27.6261C21.6837 28.4917 21.2344 28.9245 20.6728 29.1438C20.1113 29.3631 19.4939 29.347 18.2592 29.3147L18.0912 29.3103C17.7153 29.3005 17.5275 29.2955 17.4181 29.1715C17.3089 29.0475 17.3239 28.8561 17.3536 28.4733L17.3699 28.2653C17.4539 27.1877 17.4957 26.6489 17.7063 26.1645C17.9167 25.6801 18.2796 25.2869 19.0056 24.5002L24.5763 18.4649Z" stroke="#777777" stroke-width="1.5" stroke-linejoin="round"/>
</svg>
