<svg width="225" height="249" viewBox="0 0 225 249" fill="none" xmlns="http://www.w3.org/2000/svg">
<g opacity="0.5">
<path d="M168.629 168.387C199.628 137.388 199.628 87.128 168.629 56.1288C137.63 25.1297 87.3703 25.1297 56.3712 56.1288C25.372 87.128 25.372 137.388 56.3712 168.387C87.3703 199.386 137.63 199.386 168.629 168.387Z" fill="#BDD0FB"/>
<path d="M112.501 180.005C149.917 180.005 180.248 149.673 180.248 112.258C180.248 74.8421 149.917 44.5107 112.501 44.5107C75.0853 44.5107 44.7539 74.8421 44.7539 112.258C44.7539 149.673 75.0853 180.005 112.501 180.005Z" fill="url(#paint0_linear_3627_31916)"/>
<path d="M112.501 183.398C73.2748 183.398 41.3613 151.485 41.3613 112.258C41.3613 73.0303 73.2748 41.1172 112.501 41.1172C151.728 41.1172 183.642 73.0303 183.642 112.258C183.642 151.485 151.728 183.398 112.501 183.398ZM112.501 44.5105C75.1457 44.5105 44.7547 74.9015 44.7547 112.257C44.7547 149.614 75.1457 180.005 112.501 180.005C149.857 180.005 180.248 149.614 180.248 112.257C180.248 74.9015 149.857 44.5105 112.501 44.5105Z" fill="white"/>
<path d="M112.501 153.561C135.311 153.561 153.803 135.069 153.803 112.259C153.803 89.4485 135.311 70.957 112.501 70.957C89.6907 70.957 71.1992 89.4485 71.1992 112.259C71.1992 135.069 89.6907 153.561 112.501 153.561Z" fill="url(#paint1_linear_3627_31916)"/>
<path d="M112.502 156.953C87.8568 156.953 67.8066 136.903 67.8066 112.258C67.8066 87.6133 87.8568 67.5635 112.502 67.5635C137.146 67.5635 157.197 87.6133 157.197 112.258C157.197 136.903 137.146 156.953 112.502 156.953ZM112.502 74.3498C91.5987 74.3498 74.5929 91.3553 74.5929 112.258C74.5929 133.161 91.5987 150.167 112.502 150.167C133.405 150.167 150.41 133.161 150.41 112.258C150.41 91.3553 133.405 74.3498 112.502 74.3498Z" fill="white"/>
<path d="M112.503 128.26C121.341 128.26 128.505 121.096 128.505 112.258C128.505 103.421 121.341 96.2568 112.503 96.2568C103.666 96.2568 96.502 103.421 96.502 112.258C96.502 121.096 103.666 128.26 112.503 128.26Z" fill="url(#paint2_linear_3627_31916)"/>
<path d="M112.504 131.653C101.81 131.653 93.1094 122.953 93.1094 112.258C93.1094 101.564 101.81 92.8633 112.504 92.8633C123.198 92.8633 131.899 101.564 131.899 112.258C131.899 122.953 123.198 131.653 112.504 131.653ZM112.504 99.6496C105.552 99.6496 99.8957 105.306 99.8957 112.258C99.8957 119.211 105.552 124.867 112.504 124.867C119.456 124.867 125.113 119.211 125.113 112.258C125.113 105.306 119.456 99.6496 112.504 99.6496Z" fill="white"/>
<path d="M188.244 36.7217L189.93 38.4071L126.107 102.229L124.422 100.544L188.244 36.7217Z" fill="url(#paint3_linear_3627_31916)"/>
<path d="M125.614 96.4775C126.581 95.5106 131.14 100.069 130.173 101.036L113.266 114.327C112.641 114.818 111.832 114.009 112.323 113.384L125.614 96.4775Z" fill="url(#paint4_linear_3627_31916)"/>
<path d="M189.892 38.4424L198.478 39.2957L186.691 51.0828C182.829 54.9447 177.439 56.8708 172.004 56.3305L189.892 38.4424Z" fill="#91B3FA"/>
<path d="M188.208 36.758L187.355 28.1719L175.568 39.9589C171.706 43.8208 169.78 49.2113 170.32 54.6461L188.208 36.758Z" fill="#91B3FA"/>
</g>
<path d="M34.6165 222.061V239.516H31.429L23.8352 228.53H23.7074V239.516H20.017V222.061H23.2557L30.7898 233.038H30.9432V222.061H34.6165ZM43.5121 239.771C42.1882 239.771 41.0433 239.49 40.0774 238.928C39.1172 238.359 38.3757 237.57 37.853 236.558C37.3303 235.541 37.0689 234.362 37.0689 233.021C37.0689 231.669 37.3303 230.487 37.853 229.476C38.3757 228.459 39.1172 227.669 40.0774 227.107C41.0433 226.538 42.1882 226.254 43.5121 226.254C44.8359 226.254 45.978 226.538 46.9382 227.107C47.9041 227.669 48.6484 228.459 49.1712 229.476C49.6939 230.487 49.9553 231.669 49.9553 233.021C49.9553 234.362 49.6939 235.541 49.1712 236.558C48.6484 237.57 47.9041 238.359 46.9382 238.928C45.978 239.49 44.8359 239.771 43.5121 239.771ZM43.5291 236.959C44.1314 236.959 44.6342 236.788 45.0376 236.447C45.4411 236.101 45.745 235.629 45.9496 235.033C46.1598 234.436 46.2649 233.757 46.2649 232.996C46.2649 232.234 46.1598 231.555 45.9496 230.959C45.745 230.362 45.4411 229.891 45.0376 229.544C44.6342 229.197 44.1314 229.024 43.5291 229.024C42.9212 229.024 42.4098 229.197 41.995 229.544C41.5859 229.891 41.2763 230.362 41.0661 230.959C40.8615 231.555 40.7592 232.234 40.7592 232.996C40.7592 233.757 40.8615 234.436 41.0661 235.033C41.2763 235.629 41.5859 236.101 41.995 236.447C42.4098 236.788 42.9212 236.959 43.5291 236.959ZM63.7685 244.697C62.5923 244.697 61.5838 244.536 60.7429 244.212C59.9077 243.893 59.2429 243.459 58.7486 242.908C58.2543 242.357 57.9332 241.737 57.7855 241.05L61.1435 240.598C61.2457 240.859 61.4077 241.104 61.6293 241.331C61.8509 241.558 62.1435 241.74 62.5071 241.876C62.8764 242.018 63.3253 242.089 63.8537 242.089C64.6435 242.089 65.294 241.896 65.8054 241.51C66.3224 241.129 66.581 240.49 66.581 239.592V237.197H66.4276C66.2685 237.561 66.0298 237.905 65.7116 238.229C65.3935 238.553 64.9844 238.817 64.4844 239.021C63.9844 239.226 63.3878 239.328 62.6946 239.328C61.7116 239.328 60.8168 239.101 60.0099 238.646C59.2088 238.186 58.5696 237.484 58.0923 236.541C57.6207 235.592 57.3849 234.393 57.3849 232.945C57.3849 231.462 57.6264 230.223 58.1094 229.229C58.5923 228.234 59.2344 227.49 60.0355 226.996C60.8423 226.501 61.7259 226.254 62.6861 226.254C63.419 226.254 64.0327 226.379 64.527 226.629C65.0213 226.874 65.419 227.18 65.7202 227.55C66.027 227.913 66.2628 228.271 66.4276 228.624H66.5639V226.425H70.169V239.643C70.169 240.757 69.8963 241.689 69.3509 242.439C68.8054 243.189 68.0497 243.751 67.0838 244.126C66.1236 244.507 65.0185 244.697 63.7685 244.697ZM63.8452 236.601C64.4304 236.601 64.9247 236.456 65.3281 236.166C65.7372 235.871 66.0497 235.45 66.2656 234.905C66.4872 234.354 66.598 233.695 66.598 232.928C66.598 232.161 66.4901 231.496 66.2741 230.933C66.0582 230.365 65.7457 229.925 65.3366 229.612C64.9276 229.3 64.4304 229.143 63.8452 229.143C63.2486 229.143 62.7457 229.305 62.3366 229.629C61.9276 229.947 61.6179 230.391 61.4077 230.959C61.1974 231.527 61.0923 232.183 61.0923 232.928C61.0923 233.683 61.1974 234.337 61.4077 234.888C61.6236 235.433 61.9332 235.857 62.3366 236.158C62.7457 236.453 63.2486 236.601 63.8452 236.601ZM78.973 239.771C77.6491 239.771 76.5043 239.49 75.5384 238.928C74.5781 238.359 73.8366 237.57 73.3139 236.558C72.7912 235.541 72.5298 234.362 72.5298 233.021C72.5298 231.669 72.7912 230.487 73.3139 229.476C73.8366 228.459 74.5781 227.669 75.5384 227.107C76.5043 226.538 77.6491 226.254 78.973 226.254C80.2969 226.254 81.4389 226.538 82.3991 227.107C83.3651 227.669 84.1094 228.459 84.6321 229.476C85.1548 230.487 85.4162 231.669 85.4162 233.021C85.4162 234.362 85.1548 235.541 84.6321 236.558C84.1094 237.57 83.3651 238.359 82.3991 238.928C81.4389 239.49 80.2969 239.771 78.973 239.771ZM78.9901 236.959C79.5923 236.959 80.0952 236.788 80.4986 236.447C80.902 236.101 81.206 235.629 81.4105 235.033C81.6207 234.436 81.7259 233.757 81.7259 232.996C81.7259 232.234 81.6207 231.555 81.4105 230.959C81.206 230.362 80.902 229.891 80.4986 229.544C80.0952 229.197 79.5923 229.024 78.9901 229.024C78.3821 229.024 77.8707 229.197 77.456 229.544C77.0469 229.891 76.7372 230.362 76.527 230.959C76.3224 231.555 76.2202 232.234 76.2202 232.996C76.2202 233.757 76.3224 234.436 76.527 235.033C76.7372 235.629 77.0469 236.101 77.456 236.447C77.8707 236.788 78.3821 236.959 78.9901 236.959ZM91.5099 239.763C90.6747 239.763 89.9304 239.618 89.277 239.328C88.6236 239.033 88.1065 238.598 87.7259 238.024C87.3509 237.445 87.1634 236.723 87.1634 235.859C87.1634 235.132 87.2969 234.521 87.5639 234.027C87.831 233.533 88.1946 233.135 88.6548 232.834C89.1151 232.533 89.6378 232.305 90.223 232.152C90.8139 231.999 91.4332 231.891 92.081 231.828C92.8423 231.749 93.456 231.675 93.9219 231.607C94.3878 231.533 94.7259 231.425 94.9361 231.283C95.1463 231.141 95.2514 230.93 95.2514 230.652V230.601C95.2514 230.061 95.081 229.643 94.7401 229.348C94.4048 229.053 93.9276 228.905 93.3082 228.905C92.6548 228.905 92.1349 229.05 91.7486 229.339C91.3622 229.624 91.1065 229.982 90.9815 230.413L87.6236 230.141C87.794 229.345 88.1293 228.658 88.6293 228.078C89.1293 227.493 89.7741 227.044 90.5639 226.732C91.3594 226.413 92.2798 226.254 93.3253 226.254C94.0526 226.254 94.7486 226.339 95.4134 226.51C96.0838 226.68 96.6776 226.945 97.1946 227.303C97.7173 227.661 98.1293 228.121 98.4304 228.683C98.7315 229.24 98.8821 229.908 98.8821 230.686V239.516H95.4389V237.7H95.3366C95.1264 238.109 94.8452 238.47 94.4929 238.783C94.1406 239.089 93.7173 239.331 93.223 239.507C92.7287 239.678 92.1577 239.763 91.5099 239.763ZM92.5497 237.257C93.0838 237.257 93.5554 237.152 93.9645 236.942C94.3736 236.726 94.6946 236.436 94.9276 236.072C95.1605 235.709 95.277 235.297 95.277 234.837V233.447C95.1634 233.521 95.0071 233.589 94.8082 233.652C94.6151 233.709 94.3963 233.763 94.152 233.814C93.9077 233.859 93.6634 233.902 93.419 233.942C93.1747 233.976 92.9531 234.007 92.7543 234.036C92.3281 234.098 91.956 234.197 91.6378 234.334C91.3196 234.47 91.0724 234.655 90.8963 234.888C90.7202 235.115 90.6321 235.399 90.6321 235.74C90.6321 236.234 90.8111 236.612 91.169 236.874C91.5327 237.129 91.9929 237.257 92.5497 237.257ZM105.33 222.061V239.516H101.699V222.061H105.33ZM119.13 230.158L115.806 230.362C115.749 230.078 115.627 229.822 115.44 229.595C115.252 229.362 115.005 229.178 114.698 229.041C114.397 228.899 114.036 228.828 113.616 228.828C113.053 228.828 112.579 228.947 112.192 229.186C111.806 229.419 111.613 229.732 111.613 230.124C111.613 230.436 111.738 230.7 111.988 230.916C112.238 231.132 112.667 231.305 113.275 231.436L115.644 231.913C116.917 232.175 117.866 232.595 118.491 233.175C119.116 233.754 119.428 234.516 119.428 235.459C119.428 236.317 119.175 237.07 118.67 237.717C118.17 238.365 117.482 238.871 116.607 239.234C115.738 239.592 114.735 239.771 113.599 239.771C111.866 239.771 110.485 239.411 109.457 238.689C108.434 237.962 107.835 236.973 107.658 235.723L111.229 235.536C111.337 236.064 111.599 236.467 112.013 236.746C112.428 237.018 112.96 237.155 113.607 237.155C114.244 237.155 114.755 237.033 115.141 236.788C115.533 236.538 115.732 236.217 115.738 235.825C115.732 235.496 115.593 235.226 115.32 235.016C115.048 234.8 114.627 234.635 114.059 234.521L111.792 234.07C110.513 233.814 109.562 233.371 108.937 232.74C108.317 232.109 108.008 231.305 108.008 230.328C108.008 229.487 108.235 228.763 108.69 228.155C109.15 227.547 109.795 227.078 110.624 226.749C111.46 226.419 112.437 226.254 113.556 226.254C115.21 226.254 116.511 226.604 117.46 227.303C118.414 228.001 118.971 228.953 119.13 230.158ZM138.161 230.158L134.837 230.362C134.781 230.078 134.658 229.822 134.471 229.595C134.283 229.362 134.036 229.178 133.729 229.041C133.428 228.899 133.067 228.828 132.647 228.828C132.085 228.828 131.61 228.947 131.224 229.186C130.837 229.419 130.644 229.732 130.644 230.124C130.644 230.436 130.769 230.7 131.019 230.916C131.269 231.132 131.698 231.305 132.306 231.436L134.675 231.913C135.948 232.175 136.897 232.595 137.522 233.175C138.147 233.754 138.46 234.516 138.46 235.459C138.46 236.317 138.207 237.07 137.701 237.717C137.201 238.365 136.513 238.871 135.638 239.234C134.769 239.592 133.766 239.771 132.63 239.771C130.897 239.771 129.516 239.411 128.488 238.689C127.465 237.962 126.866 236.973 126.69 235.723L130.261 235.536C130.369 236.064 130.63 236.467 131.045 236.746C131.46 237.018 131.991 237.155 132.638 237.155C133.275 237.155 133.786 237.033 134.173 236.788C134.565 236.538 134.763 236.217 134.769 235.825C134.763 235.496 134.624 235.226 134.352 235.016C134.079 234.8 133.658 234.635 133.09 234.521L130.823 234.07C129.545 233.814 128.593 233.371 127.968 232.74C127.349 232.109 127.039 231.305 127.039 230.328C127.039 229.487 127.266 228.763 127.721 228.155C128.181 227.547 128.826 227.078 129.656 226.749C130.491 226.419 131.468 226.254 132.587 226.254C134.241 226.254 135.542 226.604 136.491 227.303C137.445 228.001 138.002 228.953 138.161 230.158ZM146.712 239.771C145.365 239.771 144.206 239.499 143.234 238.953C142.268 238.402 141.524 237.624 141.001 236.618C140.479 235.607 140.217 234.411 140.217 233.03C140.217 231.683 140.479 230.501 141.001 229.484C141.524 228.467 142.26 227.675 143.209 227.107C144.163 226.538 145.283 226.254 146.567 226.254C147.43 226.254 148.234 226.393 148.979 226.672C149.729 226.945 150.382 227.357 150.939 227.908C151.501 228.459 151.939 229.152 152.251 229.987C152.564 230.817 152.72 231.788 152.72 232.902V233.899H141.666V231.649H149.303C149.303 231.126 149.189 230.663 148.962 230.26C148.734 229.857 148.419 229.541 148.016 229.314C147.618 229.081 147.155 228.964 146.626 228.964C146.075 228.964 145.587 229.092 145.161 229.348C144.74 229.598 144.411 229.936 144.172 230.362C143.933 230.783 143.811 231.251 143.805 231.768V233.908C143.805 234.555 143.925 235.115 144.163 235.587C144.408 236.058 144.751 236.422 145.195 236.678C145.638 236.933 146.163 237.061 146.771 237.061C147.175 237.061 147.544 237.004 147.879 236.891C148.214 236.777 148.501 236.607 148.74 236.379C148.979 236.152 149.161 235.874 149.286 235.544L152.643 235.766C152.473 236.572 152.124 237.277 151.595 237.879C151.072 238.476 150.396 238.942 149.567 239.277C148.743 239.607 147.791 239.771 146.712 239.771ZM162.053 226.425V229.152H154.169V226.425H162.053ZM155.959 223.288H159.589V235.493C159.589 235.828 159.641 236.089 159.743 236.277C159.845 236.459 159.987 236.587 160.169 236.661C160.357 236.734 160.572 236.771 160.817 236.771C160.987 236.771 161.158 236.757 161.328 236.729C161.499 236.695 161.629 236.669 161.72 236.652L162.291 239.354C162.109 239.411 161.854 239.476 161.524 239.55C161.195 239.629 160.794 239.678 160.322 239.695C159.447 239.729 158.68 239.612 158.021 239.345C157.368 239.078 156.859 238.663 156.496 238.101C156.132 237.538 155.953 236.828 155.959 235.97V223.288ZM172.214 244.425C171.754 244.425 171.322 244.388 170.918 244.314C170.521 244.246 170.191 244.158 169.93 244.05L170.748 241.339C171.174 241.47 171.558 241.541 171.898 241.553C172.245 241.564 172.543 241.484 172.793 241.314C173.049 241.143 173.256 240.854 173.415 240.445L173.629 239.891L168.933 226.425H172.751L175.461 236.038H175.597L178.333 226.425H182.177L177.089 240.93C176.844 241.635 176.512 242.249 176.092 242.771C175.677 243.3 175.151 243.706 174.515 243.99C173.879 244.28 173.112 244.425 172.214 244.425ZM189.579 239.771C188.232 239.771 187.073 239.499 186.102 238.953C185.136 238.402 184.391 237.624 183.869 236.618C183.346 235.607 183.085 234.411 183.085 233.03C183.085 231.683 183.346 230.501 183.869 229.484C184.391 228.467 185.127 227.675 186.076 227.107C187.031 226.538 188.15 226.254 189.434 226.254C190.298 226.254 191.102 226.393 191.846 226.672C192.596 226.945 193.249 227.357 193.806 227.908C194.369 228.459 194.806 229.152 195.119 229.987C195.431 230.817 195.587 231.788 195.587 232.902V233.899H184.533V231.649H192.17C192.17 231.126 192.056 230.663 191.829 230.26C191.602 229.857 191.286 229.541 190.883 229.314C190.485 229.081 190.022 228.964 189.494 228.964C188.942 228.964 188.454 229.092 188.028 229.348C187.607 229.598 187.278 229.936 187.039 230.362C186.8 230.783 186.678 231.251 186.673 231.768V233.908C186.673 234.555 186.792 235.115 187.031 235.587C187.275 236.058 187.619 236.422 188.062 236.678C188.505 236.933 189.031 237.061 189.638 237.061C190.042 237.061 190.411 237.004 190.746 236.891C191.082 236.777 191.369 236.607 191.607 236.379C191.846 236.152 192.028 235.874 192.153 235.544L195.511 235.766C195.34 236.572 194.991 237.277 194.462 237.879C193.94 238.476 193.263 238.942 192.434 239.277C191.61 239.607 190.658 239.771 189.579 239.771ZM204.92 226.425V229.152H197.036V226.425H204.92ZM198.826 223.288H202.457V235.493C202.457 235.828 202.508 236.089 202.61 236.277C202.712 236.459 202.854 236.587 203.036 236.661C203.224 236.734 203.44 236.771 203.684 236.771C203.854 236.771 204.025 236.757 204.195 236.729C204.366 236.695 204.496 236.669 204.587 236.652L205.158 239.354C204.977 239.411 204.721 239.476 204.391 239.55C204.062 239.629 203.661 239.678 203.19 239.695C202.315 239.729 201.548 239.612 200.888 239.345C200.235 239.078 199.727 238.663 199.363 238.101C198.999 237.538 198.82 236.828 198.826 235.97V223.288Z" fill="black"/>
<defs>
<linearGradient id="paint0_linear_3627_31916" x1="171.521" y1="33.899" x2="18.9804" y2="236.421" gradientUnits="userSpaceOnUse">
<stop stop-color="#4F52FF"/>
<stop offset="1" stop-color="#4042E2"/>
</linearGradient>
<linearGradient id="paint1_linear_3627_31916" x1="171.521" y1="33.9" x2="18.9808" y2="236.422" gradientUnits="userSpaceOnUse">
<stop stop-color="#4F52FF"/>
<stop offset="1" stop-color="#4042E2"/>
</linearGradient>
<linearGradient id="paint2_linear_3627_31916" x1="126.336" y1="3.22244" x2="117.845" y2="70.1536" gradientUnits="userSpaceOnUse">
<stop stop-color="#FF928E"/>
<stop offset="1" stop-color="#FE7062"/>
</linearGradient>
<linearGradient id="paint3_linear_3627_31916" x1="94.4775" y1="107.404" x2="162.737" y2="66.1116" gradientUnits="userSpaceOnUse">
<stop stop-color="#09005D"/>
<stop offset="1" stop-color="#1A0F91"/>
</linearGradient>
<linearGradient id="paint4_linear_3627_31916" x1="117.487" y1="107.387" x2="165.804" y2="67.3101" gradientUnits="userSpaceOnUse">
<stop stop-color="#09005D"/>
<stop offset="1" stop-color="#1A0F91"/>
</linearGradient>
</defs>
</svg>
