<svg width="151" height="220" viewBox="0 0 151 220" fill="none" xmlns="http://www.w3.org/2000/svg">
<g opacity="0.7">
<path d="M130.024 172H20.9761C17.9521 172 15.5 169.539 15.5 166.504V18.1079C15.5 15.0725 17.9521 12.6123 20.9761 12.6123H130.024C133.049 12.6123 135.5 15.0725 135.5 18.1079V166.504C135.5 169.539 133.048 172 130.024 172Z" fill="#6AA5FE"/>
<path d="M15.5 51.4424V166.505C15.5 169.54 17.9521 172 20.9761 172H130.024C133.049 172 135.5 169.54 135.5 166.505V143.796L15.5 51.4424Z" fill="#527EE9"/>
<path d="M126.291 164.646H24.7109C23.4747 164.646 22.4727 163.64 22.4727 162.4V22.2129C22.4727 20.9724 23.4747 19.9668 24.7109 19.9668H126.291C127.527 19.9668 128.529 20.9724 128.529 22.2129V162.4C128.528 163.64 127.526 164.646 126.291 164.646Z" fill="#F3F4F6"/>
<path d="M84.5965 9.60286C84.604 9.45222 84.6191 9.3045 84.6191 9.15212C84.6191 4.09798 80.5362 0 75.4994 0C70.4625 0 66.3796 4.0974 66.3796 9.15212C66.3796 9.3045 66.3952 9.45281 66.4022 9.60286H52.9961V23.5544H98.0032V9.60286H84.5965Z" fill="#1A55B5"/>
<path d="M52.9961 9.60254V23.554H98.0032L52.9961 9.60254Z" fill="#2C6BC6"/>
<path d="M77.4723 13.8891C80.0827 12.7969 81.3166 9.78789 80.2284 7.16821C79.1401 4.54854 76.1417 3.31023 73.5313 4.40238C70.9208 5.49452 69.6869 8.50355 70.7752 11.1232C71.8635 13.7429 74.8619 14.9812 77.4723 13.8891Z" fill="#527EE9"/>
<path d="M71.8789 5.51855C69.8789 7.52567 69.8789 10.7797 71.8789 12.7863C73.8789 14.7934 77.1215 14.7934 79.121 12.7863L71.8789 5.51855Z" fill="#6AA5FE"/>
<path d="M98.0032 23.5547H52.9961V24.5155H98.0032V23.5547Z" fill="#CDE1F9"/>
<path d="M52.2757 42.457H35.2051V59.5882H52.2757V42.457Z" stroke="#1A55B5" stroke-miterlimit="10"/>
<path d="M40.1992 51.8983L45.4198 56.0114L56.0336 45.749" stroke="#F3F4F6" stroke-width="4" stroke-miterlimit="10"/>
<path d="M39.041 50.7352L44.2616 54.8483L54.8754 44.5859" stroke="#FF746F" stroke-width="4" stroke-miterlimit="10"/>
<path d="M116.094 47.3201H60.4697C60.1069 47.3201 59.8125 47.0246 59.8125 46.6605C59.8125 46.2964 60.1063 46.001 60.4697 46.001H116.094C116.456 46.001 116.751 46.2964 116.751 46.6605C116.751 47.0246 116.457 47.3201 116.094 47.3201Z" fill="#6AA5FE"/>
<path d="M116.094 50.2283H60.4697C60.1069 50.2283 59.8125 49.9328 59.8125 49.5687C59.8125 49.2046 60.1063 48.9092 60.4697 48.9092H116.094C116.456 48.9092 116.751 49.2046 116.751 49.5687C116.751 49.9328 116.457 50.2283 116.094 50.2283Z" fill="#6AA5FE"/>
<path d="M116.094 53.1365H60.4697C60.1069 53.1365 59.8125 52.841 59.8125 52.4769C59.8125 52.1128 60.1063 51.8174 60.4697 51.8174H116.094C116.456 51.8174 116.751 52.1128 116.751 52.4769C116.751 52.8416 116.457 53.1365 116.094 53.1365Z" fill="#6AA5FE"/>
<path d="M116.094 56.0447H60.4697C60.1069 56.0447 59.8125 55.7492 59.8125 55.3851C59.8125 55.021 60.1063 54.7256 60.4697 54.7256H116.094C116.456 54.7256 116.751 55.021 116.751 55.3851C116.751 55.7492 116.457 56.0447 116.094 56.0447Z" fill="#6AA5FE"/>
<path d="M52.2757 70.0361H35.2051V87.1673H52.2757V70.0361Z" stroke="#1A55B5" stroke-miterlimit="10"/>
<path d="M40.1992 79.4774L45.4198 83.5899L56.0336 73.3281" stroke="#F3F4F6" stroke-width="4" stroke-miterlimit="10"/>
<path d="M39.041 78.3143L44.2616 82.4269L54.8754 72.165" stroke="#FF746F" stroke-width="4" stroke-miterlimit="10"/>
<path d="M116.094 74.8982H60.4697C60.1069 74.8982 59.8125 74.6027 59.8125 74.2386C59.8125 73.8746 60.1063 73.5791 60.4697 73.5791H116.094C116.456 73.5791 116.751 73.8746 116.751 74.2386C116.751 74.6033 116.457 74.8982 116.094 74.8982Z" fill="#6AA5FE"/>
<path d="M116.094 77.8064H60.4697C60.1069 77.8064 59.8125 77.5109 59.8125 77.1468C59.8125 76.7828 60.1063 76.4873 60.4697 76.4873H116.094C116.456 76.4873 116.751 76.7828 116.751 77.1468C116.751 77.5109 116.457 77.8064 116.094 77.8064Z" fill="#6AA5FE"/>
<path d="M116.094 80.7146H60.4697C60.1069 80.7146 59.8125 80.4191 59.8125 80.055C59.8125 79.691 60.1063 79.3955 60.4697 79.3955H116.094C116.456 79.3955 116.751 79.691 116.751 80.055C116.751 80.4191 116.457 80.7146 116.094 80.7146Z" fill="#6AA5FE"/>
<path d="M116.094 83.6228H60.4697C60.1069 83.6228 59.8125 83.3279 59.8125 82.9633C59.8125 82.5992 60.1063 82.3037 60.4697 82.3037H116.094C116.456 82.3037 116.751 82.5986 116.751 82.9633C116.751 83.3279 116.457 83.6228 116.094 83.6228Z" fill="#6AA5FE"/>
<path d="M52.2757 97.6143H35.2051V114.745H52.2757V97.6143Z" stroke="#1A55B5" stroke-miterlimit="10"/>
<path d="M40.1992 107.056L45.4198 111.169L56.0336 100.906" stroke="#F3F4F6" stroke-width="4" stroke-miterlimit="10"/>
<path d="M39.041 105.892L44.2616 110.006L54.8754 99.7432" stroke="#FF746F" stroke-width="4" stroke-miterlimit="10"/>
<path d="M116.094 102.477H60.4697C60.1069 102.477 59.8125 102.182 59.8125 101.818C59.8125 101.454 60.1063 101.158 60.4697 101.158H116.094C116.456 101.158 116.751 101.454 116.751 101.818C116.751 102.182 116.457 102.477 116.094 102.477Z" fill="#6AA5FE"/>
<path d="M116.094 105.385H60.4697C60.1069 105.385 59.8125 105.09 59.8125 104.726C59.8125 104.362 60.1063 104.066 60.4697 104.066H116.094C116.456 104.066 116.751 104.362 116.751 104.726C116.751 105.09 116.457 105.385 116.094 105.385Z" fill="#6AA5FE"/>
<path d="M116.094 108.294H60.4697C60.1069 108.294 59.8125 107.998 59.8125 107.634C59.8125 107.27 60.1063 106.975 60.4697 106.975H116.094C116.456 106.975 116.751 107.27 116.751 107.634C116.751 107.999 116.457 108.294 116.094 108.294Z" fill="#6AA5FE"/>
<path d="M116.094 111.201H60.4697C60.1069 111.201 59.8125 110.906 59.8125 110.541C59.8125 110.177 60.1063 109.882 60.4697 109.882H116.094C116.456 109.882 116.751 110.177 116.751 110.541C116.751 110.906 116.457 111.201 116.094 111.201Z" fill="#6AA5FE"/>
<path d="M52.2757 125.193H35.2051V142.324H52.2757V125.193Z" stroke="#1A55B5" stroke-miterlimit="10"/>
<path d="M40.1992 134.634L45.4198 138.747L56.0336 128.485" stroke="#F3F4F6" stroke-width="4" stroke-miterlimit="10"/>
<path d="M39.041 133.471L44.2616 137.584L54.8754 127.322" stroke="#FF746F" stroke-width="4" stroke-miterlimit="10"/>
<path d="M116.094 130.055H60.4697C60.1069 130.055 59.8125 129.76 59.8125 129.396C59.8125 129.032 60.1063 128.736 60.4697 128.736H116.094C116.456 128.736 116.751 129.032 116.751 129.396C116.751 129.761 116.457 130.055 116.094 130.055Z" fill="#6AA5FE"/>
<path d="M116.094 132.964H60.4697C60.1069 132.964 59.8125 132.668 59.8125 132.304C59.8125 131.94 60.1063 131.645 60.4697 131.645H116.094C116.456 131.645 116.751 131.94 116.751 132.304C116.751 132.668 116.457 132.964 116.094 132.964Z" fill="#6AA5FE"/>
<path d="M116.094 135.872H60.4697C60.1069 135.872 59.8125 135.576 59.8125 135.212C59.8125 134.848 60.1063 134.553 60.4697 134.553H116.094C116.456 134.553 116.751 134.848 116.751 135.212C116.751 135.576 116.457 135.872 116.094 135.872Z" fill="#6AA5FE"/>
<path d="M116.094 138.78H60.4697C60.1069 138.78 59.8125 138.485 59.8125 138.12C59.8125 137.756 60.1063 137.461 60.4697 137.461H116.094C116.456 137.461 116.751 137.756 116.751 138.12C116.751 138.485 116.457 138.78 116.094 138.78Z" fill="#6AA5FE"/>
</g>
<path d="M16.1165 193.545V211H12.929L5.33523 200.014H5.20739V211H1.51705V193.545H4.75568L12.2898 204.523H12.4432V193.545H16.1165ZM25.0121 211.256C23.6882 211.256 22.5433 210.974 21.5774 210.412C20.6172 209.844 19.8757 209.054 19.353 208.043C18.8303 207.026 18.5689 205.847 18.5689 204.506C18.5689 203.153 18.8303 201.972 19.353 200.96C19.8757 199.943 20.6172 199.153 21.5774 198.591C22.5433 198.023 23.6882 197.739 25.0121 197.739C26.3359 197.739 27.478 198.023 28.4382 198.591C29.4041 199.153 30.1484 199.943 30.6712 200.96C31.1939 201.972 31.4553 203.153 31.4553 204.506C31.4553 205.847 31.1939 207.026 30.6712 208.043C30.1484 209.054 29.4041 209.844 28.4382 210.412C27.478 210.974 26.3359 211.256 25.0121 211.256ZM25.0291 208.443C25.6314 208.443 26.1342 208.273 26.5376 207.932C26.9411 207.585 27.245 207.114 27.4496 206.517C27.6598 205.92 27.7649 205.241 27.7649 204.48C27.7649 203.719 27.6598 203.04 27.4496 202.443C27.245 201.847 26.9411 201.375 26.5376 201.028C26.1342 200.682 25.6314 200.509 25.0291 200.509C24.4212 200.509 23.9098 200.682 23.495 201.028C23.0859 201.375 22.7763 201.847 22.5661 202.443C22.3615 203.04 22.2592 203.719 22.2592 204.48C22.2592 205.241 22.3615 205.92 22.5661 206.517C22.7763 207.114 23.0859 207.585 23.495 207.932C23.9098 208.273 24.4212 208.443 25.0291 208.443ZM38.7741 196.588V193.545H53.1094V196.588H47.7656V211H44.1179V196.588H38.7741ZM59.4183 211.256C58.0945 211.256 56.9496 210.974 55.9837 210.412C55.0234 209.844 54.282 209.054 53.7592 208.043C53.2365 207.026 52.9751 205.847 52.9751 204.506C52.9751 203.153 53.2365 201.972 53.7592 200.96C54.282 199.943 55.0234 199.153 55.9837 198.591C56.9496 198.023 58.0945 197.739 59.4183 197.739C60.7422 197.739 61.8842 198.023 62.8445 198.591C63.8104 199.153 64.5547 199.943 65.0774 200.96C65.6001 201.972 65.8615 203.153 65.8615 204.506C65.8615 205.847 65.6001 207.026 65.0774 208.043C64.5547 209.054 63.8104 209.844 62.8445 210.412C61.8842 210.974 60.7422 211.256 59.4183 211.256ZM59.4354 208.443C60.0376 208.443 60.5405 208.273 60.9439 207.932C61.3473 207.585 61.6513 207.114 61.8558 206.517C62.0661 205.92 62.1712 205.241 62.1712 204.48C62.1712 203.719 62.0661 203.04 61.8558 202.443C61.6513 201.847 61.3473 201.375 60.9439 201.028C60.5405 200.682 60.0376 200.509 59.4354 200.509C58.8274 200.509 58.3161 200.682 57.9013 201.028C57.4922 201.375 57.1825 201.847 56.9723 202.443C56.7678 203.04 56.6655 203.719 56.6655 204.48C56.6655 205.241 56.7678 205.92 56.9723 206.517C57.1825 207.114 57.4922 207.585 57.9013 207.932C58.3161 208.273 58.8274 208.443 59.4354 208.443ZM76.3786 202.392V205.273H68.4183V202.392H76.3786ZM84.2962 211.213C83.3018 211.213 82.4013 210.957 81.5945 210.446C80.7933 209.929 80.157 209.17 79.6854 208.17C79.2195 207.165 78.9865 205.932 78.9865 204.472C78.9865 202.972 79.228 201.724 79.7109 200.73C80.1939 199.73 80.8359 198.983 81.6371 198.489C82.4439 197.989 83.3274 197.739 84.2876 197.739C85.0206 197.739 85.6314 197.864 86.12 198.114C86.6143 198.358 87.0121 198.665 87.3132 199.034C87.62 199.398 87.853 199.756 88.0121 200.108H88.1229V193.545H91.745V211H88.1655V208.903H88.0121C87.8416 209.267 87.6001 209.628 87.2876 209.986C86.9808 210.338 86.5803 210.631 86.0859 210.864C85.5973 211.097 85.0007 211.213 84.2962 211.213ZM85.4467 208.324C86.032 208.324 86.5263 208.165 86.9297 207.847C87.3388 207.523 87.6513 207.071 87.8672 206.491C88.0888 205.912 88.1996 205.233 88.1996 204.455C88.1996 203.676 88.0916 203 87.8757 202.426C87.6598 201.852 87.3473 201.409 86.9382 201.097C86.5291 200.784 86.032 200.628 85.4467 200.628C84.8501 200.628 84.3473 200.79 83.9382 201.114C83.5291 201.437 83.2195 201.886 83.0092 202.46C82.799 203.034 82.6939 203.699 82.6939 204.455C82.6939 205.216 82.799 205.889 83.0092 206.474C83.2251 207.054 83.5348 207.509 83.9382 207.838C84.3473 208.162 84.8501 208.324 85.4467 208.324ZM100.645 211.256C99.321 211.256 98.1761 210.974 97.2102 210.412C96.25 209.844 95.5085 209.054 94.9858 208.043C94.4631 207.026 94.2017 205.847 94.2017 204.506C94.2017 203.153 94.4631 201.972 94.9858 200.96C95.5085 199.943 96.25 199.153 97.2102 198.591C98.1761 198.023 99.321 197.739 100.645 197.739C101.969 197.739 103.111 198.023 104.071 198.591C105.037 199.153 105.781 199.943 106.304 200.96C106.827 201.972 107.088 203.153 107.088 204.506C107.088 205.847 106.827 207.026 106.304 208.043C105.781 209.054 105.037 209.844 104.071 210.412C103.111 210.974 101.969 211.256 100.645 211.256ZM100.662 208.443C101.264 208.443 101.767 208.273 102.17 207.932C102.574 207.585 102.878 207.114 103.082 206.517C103.293 205.92 103.398 205.241 103.398 204.48C103.398 203.719 103.293 203.04 103.082 202.443C102.878 201.847 102.574 201.375 102.17 201.028C101.767 200.682 101.264 200.509 100.662 200.509C100.054 200.509 99.5426 200.682 99.1278 201.028C98.7188 201.375 98.4091 201.847 98.1989 202.443C97.9943 203.04 97.892 203.719 97.892 204.48C97.892 205.241 97.9943 205.92 98.1989 206.517C98.4091 207.114 98.7188 207.585 99.1278 207.932C99.5426 208.273 100.054 208.443 100.662 208.443ZM125.896 201.642L122.572 201.847C122.515 201.562 122.393 201.307 122.205 201.08C122.018 200.847 121.771 200.662 121.464 200.526C121.163 200.384 120.802 200.312 120.381 200.312C119.819 200.312 119.344 200.432 118.958 200.67C118.572 200.903 118.379 201.216 118.379 201.608C118.379 201.92 118.504 202.185 118.754 202.401C119.004 202.616 119.433 202.79 120.04 202.92L122.41 203.398C123.683 203.659 124.631 204.08 125.256 204.659C125.881 205.239 126.194 206 126.194 206.943C126.194 207.801 125.941 208.554 125.435 209.202C124.935 209.849 124.248 210.355 123.373 210.719C122.504 211.077 121.501 211.256 120.364 211.256C118.631 211.256 117.251 210.895 116.222 210.173C115.2 209.446 114.6 208.457 114.424 207.207L117.995 207.02C118.103 207.548 118.364 207.952 118.779 208.23C119.194 208.503 119.725 208.639 120.373 208.639C121.009 208.639 121.521 208.517 121.907 208.273C122.299 208.023 122.498 207.702 122.504 207.31C122.498 206.98 122.359 206.71 122.086 206.5C121.813 206.284 121.393 206.119 120.825 206.006L118.558 205.554C117.279 205.298 116.327 204.855 115.702 204.224C115.083 203.594 114.773 202.79 114.773 201.812C114.773 200.972 115.001 200.247 115.455 199.639C115.915 199.031 116.56 198.562 117.39 198.233C118.225 197.903 119.202 197.739 120.322 197.739C121.975 197.739 123.276 198.088 124.225 198.787C125.18 199.486 125.737 200.437 125.896 201.642ZM134.446 211.256C133.099 211.256 131.94 210.983 130.969 210.438C130.003 209.886 129.259 209.108 128.736 208.102C128.213 207.091 127.952 205.895 127.952 204.514C127.952 203.168 128.213 201.986 128.736 200.969C129.259 199.952 129.994 199.159 130.943 198.591C131.898 198.023 133.017 197.739 134.301 197.739C135.165 197.739 135.969 197.878 136.713 198.156C137.463 198.429 138.116 198.841 138.673 199.392C139.236 199.943 139.673 200.636 139.986 201.472C140.298 202.301 140.455 203.273 140.455 204.386V205.384H129.401V203.134H137.037C137.037 202.611 136.923 202.148 136.696 201.744C136.469 201.341 136.153 201.026 135.75 200.798C135.352 200.565 134.889 200.449 134.361 200.449C133.81 200.449 133.321 200.577 132.895 200.832C132.474 201.082 132.145 201.42 131.906 201.847C131.668 202.267 131.545 202.736 131.54 203.253V205.392C131.54 206.04 131.659 206.599 131.898 207.071C132.142 207.543 132.486 207.906 132.929 208.162C133.372 208.418 133.898 208.545 134.506 208.545C134.909 208.545 135.278 208.489 135.614 208.375C135.949 208.261 136.236 208.091 136.474 207.864C136.713 207.636 136.895 207.358 137.02 207.028L140.378 207.25C140.207 208.057 139.858 208.761 139.33 209.364C138.807 209.96 138.131 210.426 137.301 210.761C136.477 211.091 135.526 211.256 134.446 211.256ZM149.787 197.909V200.636H141.903V197.909H149.787ZM143.693 194.773H147.324V206.977C147.324 207.312 147.375 207.574 147.477 207.761C147.58 207.943 147.722 208.071 147.903 208.145C148.091 208.219 148.307 208.256 148.551 208.256C148.722 208.256 148.892 208.241 149.062 208.213C149.233 208.179 149.364 208.153 149.455 208.136L150.026 210.838C149.844 210.895 149.588 210.96 149.259 211.034C148.929 211.114 148.528 211.162 148.057 211.179C147.182 211.213 146.415 211.097 145.756 210.83C145.102 210.562 144.594 210.148 144.23 209.585C143.866 209.023 143.688 208.312 143.693 207.455V194.773Z" fill="black"/>
</svg>
