<svg width="100" height="100" viewBox="0 0 100 100" fill="none" xmlns="http://www.w3.org/2000/svg">
<g clip-path="url(#clip0_1364_26417)">
<rect width="100" height="100" rx="50" fill="#D1EBC5"/>
<path d="M69.8561 63.0809L37.8457 57.3238V99.8633C37.8457 101.806 39.391 103.381 41.2972 103.381H96.532C98.4382 103.381 99.9835 101.806 99.9835 99.8633V84.1905L69.8561 63.0809Z" fill="#185C37"/>
<path d="M69.8561 26.619H41.2972C39.391 26.619 37.8457 28.1939 37.8457 30.1366V45.8095L69.8561 65L86.8027 70.7571L99.9835 65V45.8095L69.8561 26.619Z" fill="#21A366"/>
<path d="M37.8457 45.8095H69.8561V65H37.8457V45.8095Z" fill="#107C41"/>
<path opacity="0.1" d="M60.7557 41.9714H37.8457V89.9476H60.7557C62.6593 89.9413 64.201 88.3701 64.2072 86.43V45.489C64.201 43.5489 62.6593 41.9777 60.7557 41.9714Z" fill="black"/>
<path opacity="0.2" d="M58.8728 43.8905H37.8457V91.8667H58.8728C60.7764 91.8604 62.318 90.2892 62.3242 88.3491V47.4081C62.318 45.468 60.7764 43.8968 58.8728 43.8905Z" fill="black"/>
<path opacity="0.2" d="M58.8728 43.8905H37.8457V88.0286H58.8728C60.7764 88.0223 62.318 86.4511 62.3242 84.511V47.4081C62.318 45.468 60.7764 43.8968 58.8728 43.8905Z" fill="black"/>
<path opacity="0.2" d="M56.9898 43.8905H37.8457V88.0286H56.9898C58.8934 88.0223 60.4351 86.4511 60.4413 84.511V47.4081C60.4351 45.468 58.8934 43.8968 56.9898 43.8905Z" fill="black"/>
<path d="M22.4681 43.8905H56.9903C58.8965 43.8905 60.4418 45.4654 60.4418 47.4081V82.5919C60.4418 84.5346 58.8965 86.1095 56.9903 86.1095H22.4681C20.5619 86.1096 19.0166 84.5347 19.0166 82.5919V47.4081C19.0166 45.4654 20.5619 43.8905 22.4681 43.8905Z" fill="url(#paint0_linear_1364_26417)"/>
<path d="M29.7061 76.4337L36.9668 64.9674L30.3143 53.5644H35.6656L39.296 60.8568C39.6312 61.5495 39.8609 62.0638 39.9852 62.4035H40.0322C40.2669 61.859 40.5181 61.3221 40.7854 60.7934L44.6662 53.5682H49.5788L42.7568 64.9041L49.7521 76.4337H44.525L40.3316 68.4294C40.1341 68.0888 39.9665 67.7311 39.8308 67.3605H39.7686C39.6458 67.7235 39.4828 68.0712 39.2828 68.3967L34.9652 76.4337H29.7061Z" fill="white"/>
<path d="M96.5324 26.619H69.8564V45.8095H99.9839V30.1366C99.9839 28.1939 98.4386 26.619 96.5324 26.619Z" fill="#33C481"/>
<path d="M69.8564 65H99.9839V84.1905H69.8564V65Z" fill="#107C41"/>
</g>
<defs>
<linearGradient id="paint0_linear_1364_26417" x1="26.213" y1="41.1419" x2="54.0224" y2="88.4009" gradientUnits="userSpaceOnUse">
<stop stop-color="#18884F"/>
<stop offset="0.5" stop-color="#117E43"/>
<stop offset="1" stop-color="#0B6631"/>
</linearGradient>
<clipPath id="clip0_1364_26417">
<rect width="100" height="100" rx="50" fill="white"/>
</clipPath>
</defs>
</svg>
