
    <svg
      width="8"
      height="13"
      viewBox="0 0 8 13"
      fill="none"
      xmlns="http://www.w3.org/2000/svg"
    >
      <path
        d="M5.79805 2.02054H7.48685C7.64222 2.02054 7.76832 1.90738 7.76832 1.76794V0.252354C7.76832 0.11292 7.64222 -0.000244141 7.48685 -0.000244141H5.79805C4.09124 -0.000244141 2.70193 1.24607 2.70193 2.77833V4.54652H0.731662C0.576292 4.54652 0.450195 4.65968 0.450195 4.79912V6.3147C0.450195 6.45414 0.576292 6.5673 0.731662 6.5673H2.70193V11.8719C2.70193 12.0113 2.82802 12.1245 2.98339 12.1245H4.67219C4.82756 12.1245 4.95365 12.0113 4.95365 11.8719V6.5673H6.92392C7.04495 6.5673 7.15247 6.49759 7.19131 6.39453L7.75424 4.87894C7.78295 4.80215 7.76832 4.71727 7.7154 4.65109C7.66192 4.58542 7.57748 4.54652 7.48685 4.54652H4.95365V2.77833C4.95365 2.36054 5.33251 2.02054 5.79805 2.02054Z"
        fill="white"
      />
    </svg>
  

