
    <svg
      width="25"
      height="24"
      viewBox="0 0 25 24"
      fill="none"
      xmlns="http://www.w3.org/2000/svg"
    >
      <path
        d="M13.4031 2C14.5281 2.003 15.0991 2.009 15.5921 2.023L15.7861 2.03C16.0101 2.038 16.2311 2.048 16.4981 2.06C17.5621 2.11 18.2881 2.278 18.9251 2.525C19.5851 2.779 20.1411 3.123 20.6971 3.678C21.2056 4.1779 21.599 4.78259 21.8501 5.45C22.0971 6.087 22.2651 6.813 22.3151 7.878C22.3271 8.144 22.3371 8.365 22.3451 8.59L22.3511 8.784C22.3661 9.276 22.3721 9.847 22.3741 10.972L22.3751 11.718V13.028C22.3775 13.7574 22.3699 14.4868 22.3521 15.216L22.3461 15.41C22.3381 15.635 22.3281 15.856 22.3161 16.122C22.2661 17.187 22.0961 17.912 21.8501 18.55C21.5998 19.2178 21.2062 19.8226 20.6971 20.322C20.1971 20.8303 19.5924 21.2238 18.9251 21.475C18.2881 21.722 17.5621 21.89 16.4981 21.94C16.2608 21.9512 16.0235 21.9612 15.7861 21.97L15.5921 21.976C15.0991 21.99 14.5281 21.997 13.4031 21.999L12.6571 22H11.3481C10.6184 22.0025 9.88861 21.9949 9.15909 21.977L8.96509 21.971C8.7277 21.962 8.49036 21.9517 8.25309 21.94C7.18909 21.89 6.46309 21.722 5.82509 21.475C5.15776 21.2244 4.55331 20.8308 4.05409 20.322C3.54513 19.8223 3.15131 19.2176 2.90009 18.55C2.65309 17.913 2.48509 17.187 2.43509 16.122C2.42395 15.8847 2.41395 15.6474 2.40509 15.41L2.40009 15.216C2.38166 14.4868 2.37333 13.7574 2.37509 13.028V10.972C2.3723 10.2426 2.37963 9.5132 2.39709 8.784L2.40409 8.59C2.41209 8.365 2.42209 8.144 2.43409 7.878C2.48409 6.813 2.65209 6.088 2.89909 5.45C3.1502 4.7819 3.54481 4.17702 4.05509 3.678C4.55418 3.16947 5.15823 2.77599 5.82509 2.525C6.46309 2.278 7.18809 2.11 8.25309 2.06C8.51909 2.048 8.74109 2.038 8.96509 2.03L9.15909 2.024C9.88828 2.00623 10.6177 1.99857 11.3471 2.001L13.4031 2ZM12.3751 7C11.049 7 9.77724 7.52678 8.83955 8.46447C7.90187 9.40215 7.37509 10.6739 7.37509 12C7.37509 13.3261 7.90187 14.5979 8.83955 15.5355C9.77724 16.4732 11.049 17 12.3751 17C13.7012 17 14.9729 16.4732 15.9106 15.5355C16.8483 14.5979 17.3751 13.3261 17.3751 12C17.3751 10.6739 16.8483 9.40215 15.9106 8.46447C14.9729 7.52678 13.7012 7 12.3751 7ZM12.3751 9C12.7691 8.99993 13.1592 9.07747 13.5232 9.22817C13.8872 9.37887 14.2179 9.5998 14.4966 9.87833C14.7752 10.1569 14.9962 10.4875 15.147 10.8515C15.2979 11.2154 15.3755 11.6055 15.3756 11.9995C15.3757 12.3935 15.2981 12.7836 15.1474 13.1476C14.9967 13.5116 14.7758 13.8423 14.4973 14.121C14.2187 14.3996 13.8881 14.6206 13.5241 14.7714C13.1601 14.9223 12.7701 14.9999 12.3761 15C11.5804 15 10.8174 14.6839 10.2548 14.1213C9.69216 13.5587 9.37609 12.7956 9.37609 12C9.37609 11.2044 9.69216 10.4413 10.2548 9.87868C10.8174 9.31607 11.5804 9 12.3761 9M17.6261 5.5C17.2946 5.5 16.9766 5.6317 16.7422 5.86612C16.5078 6.10054 16.3761 6.41848 16.3761 6.75C16.3761 7.08152 16.5078 7.39946 16.7422 7.63388C16.9766 7.8683 17.2946 8 17.6261 8C17.9576 8 18.2756 7.8683 18.51 7.63388C18.7444 7.39946 18.8761 7.08152 18.8761 6.75C18.8761 6.41848 18.7444 6.10054 18.51 5.86612C18.2756 5.6317 17.9576 5.5 17.6261 5.5Z"
        fill="white"
      />
    </svg>
  
