
    <svg
      width="14"
      height="12"
      viewBox="0 0 14 12"
      fill="none"
      xmlns="http://www.w3.org/2000/svg"
    >
      <path
        d="M2.15782 2.9671C3.01813 2.9671 3.71555 2.30289 3.71555 1.48355C3.71555 0.664208 3.01813 0 2.15782 0C1.29752 0 0.600098 0.664208 0.600098 1.48355C0.600098 2.30289 1.29752 2.9671 2.15782 2.9671Z"
        fill="white"
      />
      <path
        d="M3.45593 3.95801H0.859719C0.716408 3.95801 0.600098 4.06878 0.600098 4.20527V11.623C0.600098 11.7595 0.716408 11.8703 0.859719 11.8703H3.45593C3.59924 11.8703 3.71555 11.7595 3.71555 11.623V4.20527C3.71555 4.06878 3.59924 3.95801 3.45593 3.95801Z"
        fill="white"
      />
      <path
        d="M11.1927 3.54665C10.083 3.18466 8.69511 3.50263 7.86276 4.07281C7.8342 3.96649 7.73243 3.88737 7.61145 3.88737H5.01524C4.87193 3.88737 4.75562 3.99814 4.75562 4.13463V11.5524C4.75562 11.6889 4.87193 11.7996 5.01524 11.7996H7.61145C7.75476 11.7996 7.87107 11.6889 7.87107 11.5524V6.22149C8.29062 5.8773 8.83115 5.76752 9.27354 5.94653C9.70244 6.11912 9.94804 6.54045 9.94804 7.10172V11.5524C9.94804 11.6889 10.0644 11.7996 10.2077 11.7996H12.8039C12.9472 11.7996 13.0635 11.6889 13.0635 11.5524V6.60375C13.0339 4.57178 12.0302 3.81962 11.1927 3.54665Z"
        fill="white"
      />
    </svg>

