
    <svg
      width="25"
      height="24"
      viewBox="0 0 25 24"
      fill="none"
      xmlns="http://www.w3.org/2000/svg"
    >
      <path
        d="M17.4 5.82C16.7164 5.03962 16.3397 4.03743 16.34 3H13.25V15.4C13.2261 16.071 12.9428 16.7066 12.4597 17.1729C11.9766 17.6393 11.3314 17.8999 10.66 17.9C9.23996 17.9 8.05996 16.74 8.05996 15.3C8.05996 13.58 9.71996 12.29 11.43 12.82V9.66C7.97996 9.2 4.95996 11.88 4.95996 15.3C4.95996 18.63 7.71996 21 10.65 21C13.79 21 16.34 18.45 16.34 15.3V9.01C17.593 9.90985 19.0973 10.3926 20.64 10.39V7.3C20.64 7.3 18.76 7.39 17.4 5.82Z"
        fill="white"
      />
    </svg>
