
    <svg
      width="13"
      height="11"
      viewBox="0 0 13 11"
      fill="none"
      xmlns="http://www.w3.org/2000/svg"
    >
      <path
        d="M12.8813 1.26468C12.796 1.17289 12.6585 1.14981 12.5458 1.20642C12.4756 1.2416 12.3438 1.28776 12.1872 1.33338C12.3847 1.07616 12.5435 0.788169 12.6136 0.529303C12.6439 0.417733 12.5996 0.300117 12.5031 0.233614C12.4066 0.167661 12.2781 0.167661 12.1816 0.233614C12.0296 0.33749 11.2957 0.649668 10.8317 0.750795C9.7831 -0.148913 8.5628 -0.242346 7.29425 0.483136C6.26302 1.07287 6.0386 2.27211 6.08236 3.00309C3.72199 2.7805 2.25482 1.55927 1.42895 0.54854C1.37116 0.47764 1.27802 0.440267 1.1905 0.445763C1.09848 0.452358 1.01545 0.502373 0.968318 0.579867C0.577822 1.22566 0.469537 1.9396 0.65637 2.64474C0.758482 3.02947 0.936899 3.36858 1.14393 3.64338C1.04462 3.59557 0.948681 3.53566 0.858351 3.46421C0.775314 3.39716 0.659175 3.38452 0.56099 3.42904C0.463366 3.47465 0.401088 3.57138 0.401088 3.67746C0.401088 4.88825 1.17423 5.69617 1.89631 6.11827C1.77961 6.10453 1.65786 6.07925 1.53499 6.04242C1.42951 6.01109 1.31505 6.04242 1.24211 6.12376C1.16918 6.20456 1.15178 6.31997 1.19723 6.41835C1.60287 7.29718 2.37152 7.90175 3.32252 8.12104C2.49215 8.59865 1.3807 8.83278 0.362936 8.71791C0.231088 8.69978 0.105411 8.78167 0.0638925 8.90588C0.0223742 9.03009 0.0767969 9.16639 0.192936 9.23015C1.73697 10.0793 3.13288 10.3827 4.33915 10.3827C6.09471 10.3827 7.44966 9.74073 8.27442 9.20377C10.4979 7.7583 11.8837 5.16305 11.6907 2.84096C12.047 2.58319 12.58 2.10723 12.9104 1.59554C12.9789 1.49222 12.9665 1.35591 12.8813 1.26468Z"
        fill="white"
      />
    </svg>
