
    <svg
      width="16"
      height="12"
      viewBox="0 0 16 12"
      fill="none"
      xmlns="http://www.w3.org/2000/svg"
    >
      <path
        d="M15.508 4.47332C15.541 3.51909 15.3323 2.572 14.9013 1.71999C14.6089 1.37039 14.2031 1.13446 13.7547 1.05332C11.8997 0.885006 10.037 0.816019 8.17466 0.846656C6.31909 0.814628 4.46313 0.881389 2.61466 1.04666C2.24921 1.11313 1.91101 1.28455 1.64133 1.53999C1.04133 2.09332 0.97466 3.03999 0.907993 3.83999C0.811268 5.27837 0.811268 6.72161 0.907993 8.15999C0.92728 8.61026 0.994322 9.05721 1.10799 9.49332C1.18838 9.83003 1.35101 10.1416 1.58133 10.4C1.85284 10.669 2.19892 10.8501 2.57466 10.92C4.01194 11.0974 5.46014 11.1709 6.90799 11.14C9.24133 11.1733 11.288 11.14 13.708 10.9533C14.093 10.8878 14.4488 10.7064 14.728 10.4333C14.9146 10.2466 15.054 10.0181 15.1347 9.76666C15.3731 9.03507 15.4902 8.2694 15.4813 7.49999C15.508 7.12666 15.508 4.87332 15.508 4.47332ZM6.66799 7.89999V3.77332L10.6147 5.84666C9.50799 6.45999 8.04799 7.15332 6.66799 7.89999Z"
        fill="white"
      />
    </svg>


